<svg xmlns="http://www.w3.org/2000/svg" viewBox="0 0 74.49 74.49"><defs><style>.cls-1{fill:#00a64f;}</style></defs><title>advan4</title><g id="Слой_2" data-name="Слой 2"><g id="Layer_1" data-name="Layer 1"><path class="cls-1" d="M70.89,12h-24a3.61,3.61,0,0,0-3.61,3.6v3.6H28.84L38.45,6.41V0H7.21V6.41l9.61,12.81H3.61A3.61,3.61,0,0,0,0,22.83V56.47a3.6,3.6,0,0,0,2.4,3.38v6.69a4.75,4.75,0,0,0-1.2,3.14,4.81,4.81,0,1,0,9.61,0,4.75,4.75,0,0,0-1.2-3.14V60.07H31.24v6.47A4.75,4.75,0,0,0,30,69.68a4.81,4.81,0,1,0,8.41-3.14V60.07H64.88v6.47a4.75,4.75,0,0,0-1.2,3.14,4.81,4.81,0,1,0,9.61,0,4.75,4.75,0,0,0-1.2-3.14V59.85a3.6,3.6,0,0,0,2.4-3.38V15.62A3.6,3.6,0,0,0,70.89,12Zm-24,2.4h24a1.2,1.2,0,0,1,1.2,1.2v1.2H45.66v-1.2A1.2,1.2,0,0,1,46.86,14.42ZM43.25,33.64h-5.4c-1.43-4.28-5.34-7.61-10.22-8.95V21.63H43.25ZM12,57.67V48.06H33.64v9.61Zm-8.4,0a1.21,1.21,0,0,1-1.21-1.2V40.85H12v4.81H9.61v12Zm21.62-36V24.2a17.1,17.1,0,0,0-4.81,0V21.63Zm-2.4,4.8a15.76,15.76,0,0,1,2.4.19v7H20.42v-7A16,16,0,0,1,22.83,26.43Zm4.8,7.21V27.18a12.27,12.27,0,0,1,7.65,6.46Zm-8.41,12V40.85h7.21v4.81ZM16.82,36v2.41h-2.4V36Zm0,4.81v4.81h-2.4V40.85Zm2.4-2.4V36h7.21v2.41ZM18,33.64H10.38A12.2,12.2,0,0,1,18,27.19ZM12,36v2.41H2.4V36Zm16.83,9.62V40.85h2.4v4.81Zm0-7.21V36h2.4v2.41ZM33.64,36h9.61v2.41H33.64ZM9.61,5.61V2.4H36V5.61L25.83,19.22h-6Zm-6,16H18v3.06c-4.87,1.34-8.78,4.67-10.21,9H2.4V22.83A1.21,1.21,0,0,1,3.61,21.63ZM6,72.09a2.41,2.41,0,1,1,2.4-2.41A2.4,2.4,0,0,1,6,72.09Zm1.2-7A4.83,4.83,0,0,0,6,64.88a4.84,4.84,0,0,0-1.21.17v-5H7.21Zm27.63,7a2.41,2.41,0,1,1,2.4-2.41A2.41,2.41,0,0,1,34.84,72.09Zm1.2-7a4.7,4.7,0,0,0-1.2-.17,4.76,4.76,0,0,0-1.2.17v-5H36Zm0-7.38v-12h-2.4V40.85h9.61V57.67Zm33.64,2.4v5a4.7,4.7,0,0,0-1.2-.17,4.83,4.83,0,0,0-1.2.17v-5Zm-1.2,12a2.41,2.41,0,1,1,2.41-2.41A2.41,2.41,0,0,1,68.48,72.09Zm2.41-14.42H45.66V19.22H72.09V56.47A1.2,1.2,0,0,1,70.89,57.67Z"/><path class="cls-1" d="M48.06,38.45H69.68V21.63H48.06ZM50.46,36v-7.2h2.86l3,6L59.51,30h7.77v6ZM67.28,24v3.6H58.23l-1.61,2.42-1.81-3.62H50.46V24Z"/><path class="cls-1" d="M56.47,40.85a3.61,3.61,0,1,0,3.6,3.6A3.61,3.61,0,0,0,56.47,40.85Zm0,4.81a1.21,1.21,0,1,1,1.2-1.21A1.21,1.21,0,0,1,56.47,45.66Z"/><path class="cls-1" d="M66.08,40.85a3.61,3.61,0,1,0,3.6,3.6A3.6,3.6,0,0,0,66.08,40.85Zm0,4.81a1.21,1.21,0,1,1,1.2-1.21A1.21,1.21,0,0,1,66.08,45.66Z"/></g></g></svg>