<svg xmlns="http://www.w3.org/2000/svg" viewBox="0 0 95.26 95.26"><defs><style>.cls-1{fill:#00a64f;stroke:#f9f9f9;stroke-miterlimit:10;stroke-width:1.3px;}</style></defs><title>advan1</title><g id="Слой_2" data-name="Слой 2"><g id="Layer_1" data-name="Layer 1"><path class="cls-1" d="M74.52,20.55H20.74a2,2,0,0,0-2,2h0v9.08a2,2,0,0,0,2,2h.72v39a2,2,0,0,0,2,2H71.76a2,2,0,0,0,2-2h0v-39h.72a2,2,0,0,0,2-2h0V22.59a2,2,0,0,0-2-2Zm-2,9.08H54.22v-5H72.48Zm-27.37-5h5V39.32l-1.49-.86a2,2,0,0,0-2,0l-1.5.86Zm-22.33,0H41v5H22.78Zm46.94,46H25.54V33.71H41v9.15a2,2,0,0,0,2,2,2.06,2.06,0,0,0,1-.27l3.53-2.05,3.53,2.05A2.05,2.05,0,0,0,54,43.89a2,2,0,0,0,.27-1V33.71h15.5Z"/><path class="cls-1" d="M47.63,14.21a2,2,0,0,0,2-2h0V2.69a2,2,0,0,0-4.08,0v9.48a2,2,0,0,0,2,2Z"/><path class="cls-1" d="M47.63,81.05a2,2,0,0,0-2,2h0v9.48a2,2,0,1,0,4.08,0h0V83.09a2,2,0,0,0-2-2Z"/><path class="cls-1" d="M14.21,47.63a2,2,0,0,0-2-2H2.69a2,2,0,0,0,0,4.08h9.48a2,2,0,0,0,2-2Z"/><path class="cls-1" d="M92.57,45.59H83.09a2,2,0,0,0,0,4.08h9.48a2,2,0,1,0,0-4.08Z"/><path class="cls-1" d="M79.05,18.25a2,2,0,0,0,1.44-.6l4.8-4.8A2,2,0,0,0,82.41,10h0l-4.81,4.8a2,2,0,0,0,0,2.88,2,2,0,0,0,1.44.6Z"/><path class="cls-1" d="M80.49,77.6a2,2,0,1,0-2.89,2.89l4.81,4.8a2,2,0,0,0,2.88-2.88h0Z"/><path class="cls-1" d="M14.77,77.6,10,82.41a2,2,0,0,0,2.88,2.88h0l4.8-4.8a2,2,0,1,0-2.88-2.89Z"/><path class="cls-1" d="M12.85,10A2,2,0,0,0,10,12.85h0l4.8,4.8a2,2,0,1,0,2.88-2.88Z"/></g></g></svg>