<svg xmlns="http://www.w3.org/2000/svg" viewBox="0 0 79.21 79.21"><defs><style>.cls-1{fill:#00a64f;}</style></defs><title>advan3</title><g id="Слой_2" data-name="Слой 2"><g id="Layer_1" data-name="Layer 1"><path class="cls-1" d="M66.65,13.4A23.25,23.25,0,0,0,38.71,9a1.55,1.55,0,0,0,1.51,2.71,20.12,20.12,0,1,1-8.06,8.06,1.55,1.55,0,0,0-2.72-1.5c-.09.18-.26.5-.42.83h0a23.21,23.21,0,1,0,37.63-5.7Z"/><path class="cls-1" d="M70.61,8.6a29.4,29.4,0,0,0-44.6,38l-4.82,4.82a4.63,4.63,0,0,0-5.28.91L2.27,66A7.74,7.74,0,0,0,13.21,76.94L26.85,63.3A4.63,4.63,0,0,0,27.76,58l4.82-4.83a29.39,29.39,0,0,0,38-44.59ZM24.66,61.11,11,74.75a4.64,4.64,0,0,1-6.56-6.56L18.1,54.55a1.53,1.53,0,0,1,2.18,0l4.38,4.38A1.53,1.53,0,0,1,24.66,61.11Zm1.1-5.47-2.19-2.19,4.4-4.4c.35.38.7.76,1.07,1.12s.74.72,1.12,1.07ZM68.43,48a26.3,26.3,0,1,1,0-37.2A26.25,26.25,0,0,1,68.43,48Z"/><path class="cls-1" d="M35.64,13l0,0a1.55,1.55,0,1,0-2.19,2.19l0,0A1.55,1.55,0,0,0,35.64,13Z"/></g></g></svg>