<svg xmlns="http://www.w3.org/2000/svg" viewBox="0 0 98.72 71.33"><defs><style>.cls-1{fill:#00a64f;}.cls-2{fill:#f9f9f9;}</style></defs><title>advan2</title><g id="Слой_2" data-name="Слой 2"><g id="Layer_1" data-name="Layer 1"><path class="cls-1" d="M25,62.08a2,2,0,0,1-1.43-.6,36.53,36.53,0,0,1,0-51.66,2,2,0,1,1,2.87,2.87,32.47,32.47,0,0,0,0,45.92A2,2,0,0,1,25,62.08Z"/><path class="cls-2" d="M25,62.73A2.69,2.69,0,0,1,23.07,62a37.19,37.19,0,0,1,0-52.59,2.75,2.75,0,0,1,3.79,0,2.67,2.67,0,0,1,0,3.79,31.82,31.82,0,0,0,0,45A2.69,2.69,0,0,1,25,62.73ZM25,9.88a1.38,1.38,0,0,0-1,.4A35.88,35.88,0,0,0,24,61a1.41,1.41,0,0,0,2,0,1.38,1.38,0,0,0,0-2,33.12,33.12,0,0,1,0-46.84,1.36,1.36,0,0,0,.41-1,1.39,1.39,0,0,0-.41-1A1.35,1.35,0,0,0,25,9.88Z"/><path class="cls-1" d="M16.36,70.68a2.06,2.06,0,0,1-1.44-.59,48.67,48.67,0,0,1,0-68.87A2,2,0,1,1,17.8,4.09a44.59,44.59,0,0,0,0,63.12,2,2,0,0,1-1.44,3.47Z"/><path class="cls-2" d="M16.36,71.33a2.71,2.71,0,0,1-1.9-.78,49.32,49.32,0,0,1,0-69.79,2.75,2.75,0,0,1,3.79,0,2.69,2.69,0,0,1,0,3.79,43.94,43.94,0,0,0,0,62.2,2.69,2.69,0,0,1,0,3.79A2.66,2.66,0,0,1,16.36,71.33Zm0-70.06a1.4,1.4,0,0,0-1,.41,48,48,0,0,0,0,67.95,1.43,1.43,0,0,0,2,0,1.39,1.39,0,0,0,0-2,45.24,45.24,0,0,1,0-64,1.39,1.39,0,0,0-1-2.36Z"/><path class="cls-1" d="M82.36,70.68a2.06,2.06,0,0,1-1.44-.59,2,2,0,0,1,0-2.87,44.6,44.6,0,0,0,0-63.13,2,2,0,0,1,2.87-2.87,48.65,48.65,0,0,1,0,68.86,2,2,0,0,1-1.43.6Z"/><path class="cls-2" d="M82.36,71.33a2.68,2.68,0,0,1-1.9-4.57,44,44,0,0,0,0-62.21,2.69,2.69,0,0,1,0-3.79,2.75,2.75,0,0,1,3.79,0,49.3,49.3,0,0,1,0,69.78A2.62,2.62,0,0,1,82.36,71.33Zm0-70.06a1.39,1.39,0,0,0-1,.41,1.35,1.35,0,0,0-.4,1,1.38,1.38,0,0,0,.4,1,45.25,45.25,0,0,1,0,64.05,1.35,1.35,0,0,0-.4,1,1.38,1.38,0,0,0,.4,1,1.42,1.42,0,0,0,2,0,48,48,0,0,0,0-67.95A1.36,1.36,0,0,0,82.36,1.27Z"/><path class="cls-1" d="M73.76,62.08a2,2,0,0,1-1.44-.6,2,2,0,0,1,0-2.87,32.47,32.47,0,0,0,0-45.92,2,2,0,0,1,2.87-2.87,36.53,36.53,0,0,1,0,51.66,2,2,0,0,1-1.43.6Z"/><path class="cls-2" d="M73.76,62.73a2.68,2.68,0,0,1-1.9-4.58,31.82,31.82,0,0,0,0-45,2.69,2.69,0,0,1,0-3.79,2.75,2.75,0,0,1,3.79,0,37.18,37.18,0,0,1,0,52.58A2.64,2.64,0,0,1,73.76,62.73Zm0-52.85a1.35,1.35,0,0,0-1,.4,1.38,1.38,0,0,0-.4,1,1.35,1.35,0,0,0,.4,1,33.12,33.12,0,0,1,0,46.84,1.38,1.38,0,0,0,0,2,1.41,1.41,0,0,0,2,0,35.88,35.88,0,0,0,0-50.74A1.38,1.38,0,0,0,73.75,9.88Z"/><path class="cls-1" d="M39.51,68.12a2,2,0,0,1-.91-.21,2,2,0,0,1-1.05-2.35l7.12-25.85H31.09a2,2,0,0,1-1.62-3.24L53.76,4a2,2,0,0,1,3.62,1.55l-3.6,22H67.63a2,2,0,0,1,1.6,3.27L41.12,67.33A2.05,2.05,0,0,1,39.51,68.12ZM35.15,35.65H47.33a2,2,0,0,1,2,2.57L44.21,56.66,63.5,31.59H51.39a2,2,0,0,1-1.55-.71,2.1,2.1,0,0,1-.46-1.65L52,13.07Z"/><path class="cls-2" d="M39.51,68.77a2.66,2.66,0,0,1-2.58-3.39l6.88-25H31.09A2.68,2.68,0,0,1,29,36.08L53.24,3.61a2.72,2.72,0,0,1,3.19-.87A2.68,2.68,0,0,1,58,5.64L54.55,26.88H67.63a2.68,2.68,0,0,1,2.12,4.32L41.63,67.73A2.7,2.7,0,0,1,39.51,68.77ZM55.38,3.83a1.4,1.4,0,0,0-1.1.55L30,36.86a1.37,1.37,0,0,0,1.1,2.2H45.52L38.18,65.73a1.39,1.39,0,0,0,.71,1.6,1.43,1.43,0,0,0,1.71-.39L68.72,30.4a1.38,1.38,0,0,0-1.09-2.22H53L56.74,5.43a1.36,1.36,0,0,0-.82-1.49A1.41,1.41,0,0,0,55.38,3.83ZM42.71,59.68l5.95-21.63a1.37,1.37,0,0,0-1.33-1.75H33.85L53.11,10.55,50,29.34a1.38,1.38,0,0,0,.31,1.12,1.35,1.35,0,0,0,1,.48H64.82ZM36.45,35H47.33a2.67,2.67,0,0,1,2.58,3.39L45.72,53.63,62.18,32.24H51.39a2.66,2.66,0,0,1-2-.94,2.71,2.71,0,0,1-.61-2.17L51,15.59Z"/></g></g></svg>