<svg xmlns="http://www.w3.org/2000/svg" viewBox="0 0 13.64 19.29"><defs><style>.cls-1{fill:#00a64f;stroke:#fff;stroke-miterlimit:10;stroke-width:0.25px;}</style></defs><title>Ресурс 14</title><g id="Слой_2" data-name="Слой 2"><g id="Layer_1" data-name="Layer 1"><path class="cls-1" d="M6.82.13a6.7,6.7,0,0,0-5.7,10.21l5.32,8.57a.56.56,0,0,0,.47.26h0a.57.57,0,0,0,.47-.27l5.18-8.65A6.69,6.69,0,0,0,6.82.13Zm4.79,9.55L6.9,17.54,2.07,9.75A5.58,5.58,0,1,1,12.4,6.82,5.52,5.52,0,0,1,11.61,9.68Z"/><path class="cls-1" d="M6.82,3.47a3.35,3.35,0,1,0,3.35,3.35A3.35,3.35,0,0,0,6.82,3.47Zm0,5.59A2.24,2.24,0,1,1,9.05,6.82,2.24,2.24,0,0,1,6.82,9.06Z"/></g></g></svg>