<svg xmlns="http://www.w3.org/2000/svg" viewBox="0 0 17.98 13.49"><defs><style>.cls-1{fill:#00a64f;}</style></defs><title>Ресурс 13</title><g id="Слой_2" data-name="Слой 2"><g id="Layer_1" data-name="Layer 1"><path class="cls-1" d="M16.48,0H1.5A1.5,1.5,0,0,0,0,1.5V12a1.5,1.5,0,0,0,1.5,1.5h15A1.5,1.5,0,0,0,18,12V1.5A1.5,1.5,0,0,0,16.48,0ZM1.5.75h15a.76.76,0,0,1,.16,0C15.34,2,11,5.9,9.53,7.26a.75.75,0,0,1-1.08,0C6.94,5.9,2.64,2,1.34.78A.76.76,0,0,1,1.5.75ZM.75,12V1.5a.71.71,0,0,1,0-.21L6.73,6.72C4.79,8.38,1.79,11.23.79,12.18A.58.58,0,0,1,.75,12Zm15.73.75H1.5a.47.47,0,0,1-.17,0c1-1,4.05-3.85,6-5.48l.66.6a1.57,1.57,0,0,0,1,.42,1.59,1.59,0,0,0,1-.42c.17-.17.4-.37.65-.6,1.91,1.63,4.93,4.5,6,5.48A.47.47,0,0,1,16.48,12.74Zm.75-.75a.58.58,0,0,1,0,.19c-1-.95-4-3.8-5.94-5.46C13.2,5,16.2,2.2,17.19,1.29a.71.71,0,0,1,0,.21Z"/></g></g></svg>