<svg xmlns="http://www.w3.org/2000/svg" viewBox="0 0 12.64 22.31"><defs><style>.cls-1{fill:#00a64f;}</style></defs><title>Ресурс 12</title><g id="Слой_2" data-name="Слой 2"><g id="Layer_1" data-name="Layer 1"><path class="cls-1" d="M8.18,1.12H4.46a.37.37,0,0,0-.37.37.38.38,0,0,0,.37.37H8.18a.37.37,0,0,0,.37-.37A.36.36,0,0,0,8.18,1.12Z"/><path class="cls-1" d="M10.78,1.12h-.37a.37.37,0,0,0-.37.37.38.38,0,0,0,.37.37h.37a.38.38,0,0,0,.38-.37A.37.37,0,0,0,10.78,1.12Z"/><path class="cls-1" d="M6.78,19H5.86a1,1,0,0,0-1,1v.18a1,1,0,0,0,1,1h.92a1,1,0,0,0,1-1V20A1,1,0,0,0,6.78,19Zm.29,1.2a.28.28,0,0,1-.29.28H5.86a.27.27,0,0,1-.28-.28V20a.27.27,0,0,1,.28-.28h.92a.28.28,0,0,1,.29.28Z"/><path class="cls-1" d="M11.3,0h-10A1.34,1.34,0,0,0,0,1.34V21a1.34,1.34,0,0,0,1.34,1.34h10A1.34,1.34,0,0,0,12.64,21V1.34A1.34,1.34,0,0,0,11.3,0Zm.6,21a.6.6,0,0,1-.6.6h-10a.6.6,0,0,1-.6-.6V1.34a.6.6,0,0,1,.6-.6h10a.6.6,0,0,1,.6.6V21Z"/><path class="cls-1" d="M12.27,2.23H.37A.38.38,0,0,0,0,2.6V18.22a.37.37,0,0,0,.37.37h11.9a.36.36,0,0,0,.37-.37V2.6A.37.37,0,0,0,12.27,2.23ZM11.9,17.85H.74V3H11.9Z"/></g></g></svg>