<svg xmlns="http://www.w3.org/2000/svg" viewBox="0 0 15.48 11.61"><defs><style>.cls-1{fill:#00a64f;}</style></defs><title>Ресурс 4</title><g id="Слой_2" data-name="Слой 2"><g id="Layer_1" data-name="Layer 1"><path class="cls-1" d="M14.19,0H1.29A1.29,1.29,0,0,0,0,1.29v9a1.29,1.29,0,0,0,1.29,1.29h12.9a1.29,1.29,0,0,0,1.29-1.29v-9A1.29,1.29,0,0,0,14.19,0ZM1.29.65h12.9l.14,0L8.21,6.25a.65.65,0,0,1-.94,0L1.16.67ZM.65,10.32v-9a.57.57,0,0,1,0-.18c.86.78,3.44,3.15,5.12,4.67C4.13,7.22,1.54,9.67.68,10.49A.51.51,0,0,1,.65,10.32ZM14.19,11H1.29l-.15,0c.89-.85,3.5-3.32,5.14-4.72l.56.51a1.35,1.35,0,0,0,.9.37,1.33,1.33,0,0,0,.9-.37l.56-.51c1.64,1.4,4.25,3.87,5.14,4.72Zm.65-.65a.53.53,0,0,1,0,.17c-.86-.82-3.44-3.27-5.11-4.71L14.8,1.11a.58.58,0,0,1,0,.18Z"/></g></g></svg>