<svg xmlns="http://www.w3.org/2000/svg" viewBox="0 0 15.47 15.47"><defs><style>.cls-1{fill:#00a64f;stroke:#00a64f;stroke-miterlimit:10;stroke-width:0.25px;}</style></defs><title>Ресурс 3</title><g id="Слой_2" data-name="Слой 2"><g id="Layer_1" data-name="Layer 1"><path class="cls-1" d="M14.94,11.86l-3.08-2a.89.89,0,0,0-1.2.2l-.9,1.15a.37.37,0,0,1-.49.1l-.17-.09A10.26,10.26,0,0,1,6.41,9.06,10.43,10.43,0,0,1,4.3,6.37L4.21,6.2a.37.37,0,0,1,.1-.49l1.15-.9a.9.9,0,0,0,.2-1.21L3.6.52A.9.9,0,0,0,2.4.25L1.11,1A1.82,1.82,0,0,0,.28,2.1C-.18,3.79.17,6.71,4.46,11c3.42,3.42,6,4.34,7.71,4.34a4.81,4.81,0,0,0,1.2-.15,1.85,1.85,0,0,0,1.07-.83l.78-1.29A.91.91,0,0,0,14.94,11.86Zm-.16,1L14,14.1a1.34,1.34,0,0,1-.78.6c-1.56.43-4.28.07-8.41-4S.34,3.8.77,2.24a1.31,1.31,0,0,1,.6-.78L2.66.69a.37.37,0,0,1,.52.12L4.3,2.48l.93,1.41a.38.38,0,0,1-.08.52L4,5.31a.87.87,0,0,0-.24,1.13l.09.17a10.83,10.83,0,0,0,2.2,2.81,10.65,10.65,0,0,0,2.8,2.19L9,11.7a.88.88,0,0,0,1.14-.23l.9-1.15a.39.39,0,0,1,.52-.09l3.08,2.06A.39.39,0,0,1,14.78,12.81Z"/><path class="cls-1" d="M8.75,2.66A4.31,4.31,0,0,1,13.06,7a.26.26,0,0,0,.25.26A.26.26,0,0,0,13.57,7,4.84,4.84,0,0,0,8.75,2.15a.26.26,0,0,0-.26.26A.26.26,0,0,0,8.75,2.66Z"/><path class="cls-1" d="M8.75,4.18A2.8,2.8,0,0,1,11.54,7,.25.25,0,1,0,12,7,3.29,3.29,0,0,0,8.75,3.68a.25.25,0,1,0,0,.5Z"/><path class="cls-1" d="M8.75,5.71A1.27,1.27,0,0,1,10,7a.25.25,0,1,0,.5,0A1.77,1.77,0,0,0,8.75,5.2a.26.26,0,0,0-.26.25A.26.26,0,0,0,8.75,5.71Z"/></g></g></svg>