<svg xmlns="http://www.w3.org/2000/svg" viewBox="0 0 24.82 25.72"><defs><style>.cls-1{fill:#00a64f;}</style></defs><title>sert-pdf</title><g id="Слой_2" data-name="Слой 2"><g id="Layer_1" data-name="Layer 1"><path class="cls-1" d="M6,10.5H4.37a.75.75,0,0,0-.53.22.77.77,0,0,0-.22.54V17a.76.76,0,1,0,1.51,0V15.24H6A2.37,2.37,0,1,0,6,10.5Zm0,3.23H5.13V12H6a.86.86,0,1,1,0,1.72Z"/><path class="cls-1" d="M12.38,10.5H10.8a.75.75,0,0,0-.53.22.77.77,0,0,0-.22.54s0,5.53,0,5.55a.76.76,0,0,0,.22.54.77.77,0,0,0,.53.22h0l1.62,0c1.7,0,2.94-1.51,2.94-3.52s-1.21-3.53-3-3.53Zm0,5.55h-.85V12h.82c1.38,0,1.49,1.55,1.49,2C13.87,15,13.42,16,12.41,16.05Z"/><path class="cls-1" d="M20.34,12a.76.76,0,1,0,0-1.51H18a.76.76,0,0,0-.76.76v5.68a.76.76,0,1,0,1.51,0V14.74h1.37a.76.76,0,0,0,0-1.51H18.79V12Z"/><path class="cls-1" d="M22.56,7.29H22V7.07a3.73,3.73,0,0,0-1-2.59l-3.13-3.3A3.77,3.77,0,0,0,15.11,0h-10A2.26,2.26,0,0,0,2.81,2.26v5H2.26A2.26,2.26,0,0,0,0,9.55v9a2.26,2.26,0,0,0,2.26,2.26h.55v2.61a2.26,2.26,0,0,0,2.26,2.26H19.75A2.26,2.26,0,0,0,22,23.46V20.85h.55a2.26,2.26,0,0,0,2.26-2.26v-9A2.26,2.26,0,0,0,22.56,7.29Zm-18.24-5a.76.76,0,0,1,.75-.75h10a2.26,2.26,0,0,1,1.64.7l3.13,3.3a2.28,2.28,0,0,1,.62,1.56v.22H4.32ZM20.5,23.46a.76.76,0,0,1-.75.76H5.07a.76.76,0,0,1-.75-.76V20.85H20.5Zm2.81-4.87a.75.75,0,0,1-.75.75H2.26a.75.75,0,0,1-.75-.75v-9a.76.76,0,0,1,.75-.76h20.3a.76.76,0,0,1,.75.76Z"/></g></g></svg>